<?xml version="1.0" standalone="no"?>
<!DOCTYPE svg PUBLIC "-//W3C//DTD SVG 20010904//EN"
 "http://www.w3.org/TR/2001/REC-SVG-20010904/DTD/svg10.dtd">
<svg version="1.0" xmlns="http://www.w3.org/2000/svg"
 width="1684.000000pt" height="1684.000000pt" viewBox="0 0 1684.000000 1684.000000"
 preserveAspectRatio="xMidYMid meet">
<metadata>
Created by potrace 1.14, written by Peter Selinger 2001-2017
</metadata>
<g transform="translate(0.000000,1684.000000) scale(0.100000,-0.100000)"
fill="#000000" stroke="none">
<path d="M13061 15734 c-27 -7 -170 -63 -318 -124 -147 -62 -344 -143 -438
-182 -93 -38 -179 -73 -190 -78 -11 -5 -76 -32 -145 -61 -69 -28 -145 -60
-169 -71 -24 -11 -66 -28 -94 -39 -28 -11 -69 -28 -91 -38 -23 -11 -102 -45
-176 -76 -144 -61 -351 -153 -463 -204 -37 -17 -69 -31 -71 -31 -2 0 -59 -26
-127 -59 -68 -32 -155 -73 -194 -91 -99 -46 -470 -232 -595 -298 -711 -375
-1307 -776 -1810 -1216 -289 -252 -700 -695 -875 -942 -11 -15 -38 -51 -59
-78 -84 -108 -1041 -1266 -1091 -1320 -5 -6 -66 -78 -135 -161 -69 -82 -127
-152 -130 -155 -3 -3 -39 -45 -80 -95 -41 -49 -83 -99 -93 -110 -10 -11 -51
-63 -90 -115 -59 -79 -226 -287 -262 -326 -5 -6 -23 -29 -40 -50 -16 -21 -46
-57 -65 -80 -98 -115 -622 -770 -896 -1119 -280 -357 -748 -977 -993 -1318
-90 -125 -169 -227 -175 -227 -7 0 -16 4 -21 9 -14 13 -137 58 -177 65 -18 3
-44 8 -58 11 -34 8 -186 8 -235 1 -194 -27 -405 -124 -618 -284 -111 -83 -315
-281 -388 -377 -57 -74 -196 -285 -244 -368 -84 -147 -297 -492 -360 -583
-194 -282 -379 -461 -595 -576 -109 -58 -266 -112 -359 -124 -72 -9 -128 -40
-136 -74 -12 -56 5 -82 80 -121 22 -12 103 -65 180 -119 77 -54 155 -105 173
-114 17 -9 87 -58 155 -110 134 -102 299 -215 422 -291 44 -27 86 -55 93 -62
49 -48 404 -202 562 -245 19 -6 49 -16 65 -23 175 -78 271 -123 325 -153 200
-108 466 -268 520 -312 62 -50 110 -76 293 -154 241 -103 486 -189 637 -222
19 -4 40 -9 45 -10 28 -7 124 -25 155 -30 19 -2 44 -6 55 -9 35 -7 237 -18
340 -18 100 0 346 12 355 18 3 2 34 6 70 10 111 11 495 92 715 150 674 177
779 203 915 225 41 6 86 13 100 16 14 2 56 6 95 9 38 4 76 8 83 11 48 15 246
21 352 10 641 -64 1248 -406 1606 -906 49 -68 213 -334 268 -435 6 -11 43 -67
81 -125 38 -58 75 -118 82 -134 44 -97 248 -299 388 -382 92 -56 272 -124 320
-123 6 0 -26 12 -71 28 -177 60 -334 162 -474 307 l-75 78 65 -55 c36 -29 67
-56 70 -59 3 -3 16 -14 30 -25 14 -10 -6 14 -45 55 -74 79 -73 79 17 7 147
-118 328 -215 450 -241 13 -3 41 -10 63 -15 89 -21 265 -29 340 -16 17 3 46 8
65 11 19 3 46 8 60 10 47 9 175 56 257 96 135 64 332 201 451 312 185 173 259
254 492 536 173 209 222 263 394 435 174 173 205 202 311 285 200 158 359 257
620 384 389 191 845 324 1270 372 33 3 68 8 79 10 123 23 727 22 931 -2 60 -7
236 -31 285 -40 48 -8 301 -63 360 -78 8 -2 35 -9 60 -15 174 -45 320 -103
535 -211 137 -70 257 -123 296 -133 36 -9 75 -19 85 -23 55 -20 -76 60 -281
171 -38 21 -81 46 -94 56 -50 39 -221 112 -363 154 -108 32 -125 45 -27 20
192 -49 361 -127 657 -303 156 -94 228 -129 240 -118 4 5 5 4 -188 123 -274
169 -378 226 -500 276 -86 36 -228 84 -270 92 -13 2 -37 9 -54 14 -39 13 -339
80 -386 87 -19 3 -46 7 -60 10 -55 10 -67 12 -125 19 -33 4 -69 8 -80 10 -11
1 -32 3 -47 4 -16 0 -28 5 -28 11 0 5 6 8 13 5 6 -2 41 -6 77 -10 57 -5 112
-13 225 -31 58 -9 231 -45 290 -60 33 -9 68 -18 78 -20 223 -51 464 -146 642
-253 28 -17 66 -39 85 -50 19 -10 84 -49 144 -85 60 -36 110 -66 111 -66 2 0
33 -18 70 -40 53 -30 72 -37 87 -29 41 22 18 43 -160 156 -468 295 -587 350
-977 447 -138 34 -341 78 -420 90 -22 4 -67 11 -100 16 -33 5 -85 12 -115 16
-30 3 -66 7 -80 10 -147 23 -451 23 -645 -1 -16 -2 -61 -7 -100 -10 -38 -4
-83 -8 -100 -10 -16 -3 -68 -9 -115 -15 -106 -14 -132 -18 -195 -30 -27 -6
-61 -12 -75 -15 -14 -2 -47 -10 -73 -16 -26 -6 -50 -9 -52 -7 -5 4 172 54 220
62 72 12 164 25 213 31 30 4 84 13 120 20 64 13 65 13 23 14 -61 1 -49 8 29
15 36 4 86 9 112 11 140 15 459 19 676 10 69 -3 112 -1 112 5 0 6 -3 9 -7 8
-7 -1 -126 8 -213 18 -46 5 -535 5 -580 0 -19 -2 -71 -7 -115 -10 -89 -7 -111
-10 -275 -32 -162 -21 -163 -21 -275 -44 -55 -11 -110 -22 -122 -24 -13 -3
-25 -1 -28 5 -13 19 57 68 156 109 70 29 71 30 29 24 -25 -3 -42 -4 -39 0 5 5
60 18 134 31 l30 6 -30 -15 c-16 -9 -21 -14 -10 -12 43 10 133 20 250 30 82 7
128 13 155 21 8 2 47 7 85 10 39 4 77 8 85 10 8 2 44 6 80 10 62 5 64 5 35 -9
-17 -8 -24 -15 -15 -16 17 -3 14 -3 71 5 24 4 50 7 57 7 24 2 11 18 -15 19
-21 0 -15 5 27 19 l55 18 -80 -4 c-160 -7 -276 -19 -470 -45 -77 -10 -165 -20
-195 -23 -31 -3 -69 -7 -85 -10 -71 -11 -112 -17 -140 -21 -16 -2 -63 -11
-103 -19 -40 -9 -79 -16 -85 -15 -12 1 31 15 68 23 11 3 58 14 105 25 47 11
101 23 120 26 19 3 80 14 135 24 55 11 123 22 150 26 28 3 61 8 75 10 28 4
116 13 199 21 93 8 70 14 -35 9 -117 -6 -281 -20 -344 -30 -14 -2 -45 -7 -70
-10 -317 -42 -804 -180 -1095 -309 -577 -258 -943 -506 -1369 -931 -50 -49
-76 -74 -58 -55 17 20 32 40 32 45 0 12 -84 -70 -123 -120 l-31 -40 40 35 39
35 -39 -42 c-22 -23 -43 -40 -48 -37 -5 3 -8 -2 -6 -12 2 -12 -3 -19 -14 -19
-10 0 -43 -28 -75 -62 -32 -34 -92 -97 -133 -140 -41 -43 -113 -121 -160 -173
-46 -52 -152 -163 -235 -245 -308 -309 -437 -387 -645 -389 -151 -1 -235 25
-344 109 -25 19 -46 32 -45 27 1 -13 57 -52 126 -89 40 -21 56 -33 38 -29 -62
15 -141 63 -216 134 -49 46 -75 65 -72 52 10 -38 -29 -22 -83 33 -71 74 -195
263 -307 467 -57 104 -196 305 -281 405 -109 130 -186 203 -371 354 -52 42
-229 152 -312 194 -118 59 -276 111 -350 116 -7 1 -13 8 -13 16 0 54 325 -62
546 -195 238 -144 378 -271 612 -555 29 -35 214 -318 307 -470 94 -154 224
-335 239 -335 5 0 0 10 -11 22 -29 33 -134 192 -173 263 -43 80 -27 61 55 -63
37 -56 71 -105 76 -108 5 -3 -19 39 -54 93 -35 54 -83 131 -106 170 -25 41
-48 70 -54 66 -6 -3 -7 -1 -3 5 8 13 -13 51 -108 196 -440 673 -1195 1124
-1996 1193 -155 13 -531 6 -582 -12 -7 -2 -33 -6 -58 -9 -97 -11 -376 -67
-662 -134 -114 -26 -204 -44 -202 -40 6 10 3 9 -186 -38 -192 -47 -522 -120
-610 -134 -41 -7 -84 -14 -95 -16 -161 -31 -524 -41 -665 -19 -132 21 -148 24
-270 55 -113 29 -413 130 -406 137 2 2 44 5 94 8 124 5 205 13 377 34 44 6
103 13 130 17 67 8 390 71 490 95 44 11 89 22 100 24 69 15 493 149 630 198
235 85 953 417 1180 544 39 22 117 66 175 98 491 273 1009 619 1846 1238 73
53 135 97 139 97 20 0 565 406 615 458 13 14 13 15 0 6 -26 -18 -158 -116
-322 -237 -86 -64 -160 -117 -164 -117 -3 0 5 10 20 21 29 23 28 40 -1 19 -25
-18 43 45 108 100 50 42 224 183 300 242 110 86 227 175 246 188 11 8 97 69
190 136 210 150 458 320 450 308 -3 -5 -38 -32 -79 -59 -96 -65 -418 -304
-418 -311 0 -7 10 0 110 71 112 81 240 167 240 161 0 -2 -53 -41 -117 -87 -65
-45 -181 -132 -258 -193 -245 -194 -274 -221 -115 -108 69 49 154 109 190 134
36 25 101 70 145 101 44 31 172 118 285 194 113 76 209 141 215 146 18 13 237
151 330 207 50 29 95 58 100 63 16 14 -67 -29 -158 -82 -45 -27 -98 -58 -118
-69 -46 -25 -436 -267 -466 -289 -13 -8 -23 -13 -23 -10 0 4 78 57 173 120
180 118 213 140 365 232 50 32 92 59 92 62 0 2 -3 2 -7 0 -70 -38 -228 -130
-298 -174 -176 -109 -234 -137 -90 -42 451 294 1014 613 1310 741 104 45 386
155 480 186 162 55 458 143 535 158 14 3 50 11 81 19 98 26 379 79 524 100 22
3 65 10 95 15 30 5 80 12 110 15 30 3 71 8 90 10 36 4 135 14 199 20 121 12
369 20 586 19 236 0 590 -11 645 -19 14 -2 68 -7 120 -10 52 -4 102 -8 110
-10 8 -2 44 -6 80 -10 36 -3 76 -8 90 -10 14 -2 61 -9 106 -15 44 -6 89 -12
100 -14 47 -8 91 -16 114 -21 14 -3 70 -13 125 -24 55 -11 111 -22 125 -24 14
-3 35 -8 48 -11 12 -3 30 -8 40 -10 9 -2 49 -12 87 -21 39 -9 81 -19 95 -21
14 -3 79 -20 145 -39 202 -57 286 -77 385 -91 52 -7 96 -12 97 -10 4 4 -234
81 -342 110 -49 14 -121 36 -160 49 -38 13 -131 37 -205 53 -74 16 -128 30
-120 32 45 8 522 -120 755 -204 72 -25 146 -48 165 -50 l35 -4 -28 16 c-53 29
-322 121 -552 188 -66 19 -112 35 -103 36 41 1 703 -212 724 -232 9 -10 44 4
44 17 0 21 -19 30 -185 93 -219 82 -522 177 -665 208 -19 4 -39 9 -45 10 -59
15 -279 64 -307 68 -21 3 -57 10 -80 15 -61 14 -226 40 -388 61 -47 6 -96 13
-110 15 -14 2 -59 6 -100 10 -41 4 -86 8 -100 10 -37 5 -154 16 -224 21 -152
10 -595 0 -866 -21 -30 -2 -95 -7 -144 -10 -49 -3 -93 -8 -98 -11 -4 -3 -8 -1
-8 4 0 11 56 20 175 27 148 9 240 16 260 20 11 2 40 4 65 5 42 2 43 3 15 10
-22 5 -5 8 60 10 144 4 589 3 727 -2 70 -3 125 -2 123 2 -2 4 -31 8 -64 9 -33
1 -70 4 -82 6 -85 16 -685 23 -917 11 -243 -13 -412 -27 -517 -41 -17 -2 -37
0 -45 5 -11 7 -1 15 43 34 31 14 78 31 104 37 27 6 53 18 60 26 7 10 13 11 18
3 3 -5 11 -8 16 -4 5 3 94 7 197 10 103 2 207 6 232 9 25 2 94 7 155 10 60 4
112 7 115 7 3 0 12 0 20 -1 13 -1 13 -2 0 -11 -10 -7 8 -9 59 -5 76 5 107 14
55 16 -23 1 -19 4 21 15 45 12 31 13 -145 8 -206 -5 -310 -9 -450 -20 -47 -3
-98 -5 -113 -5 -21 1 -26 -2 -21 -11 6 -10 5 -11 -7 -1 -12 10 -18 10 -29 0
-10 -10 -11 -9 -5 3 8 13 7 13 -10 0 -12 -10 -16 -10 -11 -2 6 9 2 11 -16 8
-12 -3 -63 -8 -112 -11 -49 -3 -93 -8 -97 -11 -5 -3 -9 0 -9 5 0 6 15 11 33
12 17 0 41 2 52 4 11 2 52 7 90 10 39 3 77 8 85 10 8 2 56 7 105 10 50 4 106
8 125 10 19 2 105 7 190 11 85 4 157 9 160 11 5 6 -469 -5 -530 -12 -19 -2
-77 -6 -128 -10 -52 -3 -103 -8 -115 -11 -12 -2 -47 -6 -78 -9 -31 -3 -67 -8
-80 -11 -13 -2 -44 -7 -69 -9 -25 -3 -56 -7 -70 -10 -14 -3 -41 -7 -60 -10
-284 -45 -642 -125 -900 -202 -121 -36 -449 -143 -485 -158 -16 -7 -77 -31
-135 -53 -115 -44 -291 -119 -410 -174 -97 -45 -113 -52 -126 -53 -6 0 -19 -7
-29 -15 -10 -8 -21 -14 -24 -13 -13 5 -41 -9 -36 -18 3 -5 -1 -6 -9 -3 -18 7
-75 -21 -99 -50 -10 -11 -16 -14 -12 -6 6 13 5 13 -7 0 -7 -8 -21 -16 -30 -18
-9 -1 -68 -29 -130 -61 -419 -214 -739 -415 -1144 -716 -111 -82 -286 -210
-388 -284 -103 -74 -190 -139 -193 -144 -9 -15 3 -6 237 163 243 177 294 213
435 308 55 37 103 71 107 77 4 5 10 6 13 3 11 -11 -248 -197 -708 -510 -11 -7
-33 -23 -49 -35 -17 -12 -35 -20 -40 -17 -9 6 -128 -84 -128 -98 0 -5 -4 -7
-9 -4 -5 3 -15 -2 -22 -11 -12 -14 -12 -16 0 -8 10 5 12 4 7 -4 -4 -6 -12 -9
-17 -6 -9 6 -193 -126 -206 -148 -6 -11 72 46 116 83 13 12 26 18 29 15 4 -3
2 -9 -4 -13 -31 -21 -271 -207 -282 -219 -7 -8 -7 -9 0 -3 16 13 38 13 38 0 0
-22 -178 -167 -435 -354 -359 -260 -619 -438 -1270 -869 -138 -91 -277 -186
-309 -212 -31 -26 -60 -44 -63 -41 -17 16 60 73 427 321 129 87 276 186 325
220 50 34 180 123 291 197 170 115 414 286 449 315 6 5 83 64 173 131 184 138
352 271 352 277 0 3 -27 -16 -60 -42 -33 -25 -63 -44 -65 -41 -3 3 13 20 37
37 23 17 38 31 34 31 -4 0 -82 -57 -174 -126 -161 -122 -204 -157 -173 -139
10 5 12 4 7 -4 -4 -6 -12 -9 -17 -5 -13 8 -40 -16 -32 -29 3 -6 1 -7 -5 -3 -6
3 -93 -54 -194 -127 -891 -650 -1741 -1149 -2488 -1459 -80 -33 -158 -66 -175
-73 -58 -25 -376 -134 -410 -141 -5 -1 -39 -10 -75 -19 -36 -9 -72 -18 -80
-20 -8 -2 -60 -14 -116 -28 -56 -13 -113 -23 -128 -21 -14 1 -24 0 -22 -4 2
-4 -15 -7 -37 -8 -23 -1 -85 -8 -137 -17 -52 -9 -117 -18 -145 -22 -27 -3 -61
-8 -75 -10 -14 -2 -52 -7 -85 -10 -33 -3 -87 -8 -120 -11 -364 -35 -809 -22
-1100 32 -16 3 -39 7 -50 9 -200 32 -496 117 -750 216 l-110 43 105 23 c58 12
113 25 122 27 41 11 235 79 253 89 11 6 22 12 25 12 14 3 174 87 235 125 271
166 550 433 767 735 172 240 282 453 410 795 86 230 90 246 105 465 4 61 8
115 9 120 1 6 2 26 3 45 1 41 -19 26 326 235 253 152 298 177 326 180 8 1 102
54 207 118 106 64 194 117 197 117 2 0 30 15 62 34 32 18 99 55 148 81 165 88
240 127 290 155 28 15 91 49 140 75 736 391 1385 768 1745 1014 139 94 154
105 160 112 3 3 27 21 55 39 27 19 56 40 65 46 8 7 71 57 140 110 69 54 127
101 130 104 45 50 231 195 600 465 380 279 873 650 1010 762 8 6 89 71 180
144 488 391 935 809 1250 1168 36 40 77 87 91 103 15 17 31 35 35 42 5 6 45
54 89 106 145 172 419 549 438 603 4 9 10 17 15 17 5 0 38 37 74 83 36 45 80
98 97 117 17 19 48 60 68 90 52 78 385 520 573 760 11 14 40 52 65 85 25 33
51 67 58 75 12 15 320 427 422 565 63 85 96 133 240 340 95 138 148 219 261
395 43 67 146 255 180 328 154 330 102 479 -145 416z m-1091 -967 c-201 -101
-403 -204 -450 -229 -119 -63 -305 -163 -390 -211 -19 -11 -75 -42 -125 -70
-449 -248 -988 -585 -1385 -866 -144 -101 -352 -252 -360 -261 -3 -3 -41 -32
-85 -65 -73 -54 -415 -326 -441 -350 -6 -5 -35 -30 -64 -55 -401 -338 -859
-781 -1205 -1165 -49 -55 -93 -102 -96 -105 -46 -41 -542 -643 -659 -800 -14
-18 -30 -38 -35 -44 -9 -10 -159 -213 -239 -324 -27 -37 -101 -133 -194 -252
-147 -187 -675 -836 -691 -850 -3 -3 -23 -25 -43 -50 -20 -25 -48 -58 -63 -75
-14 -16 -36 -41 -47 -55 -41 -48 -203 -234 -218 -250 -8 -9 -53 -58 -100 -110
-47 -52 -110 -121 -141 -155 -32 -33 -84 -89 -117 -124 -32 -35 -63 -61 -68
-58 -18 11 -57 100 -61 141 -4 38 -1 45 44 92 48 51 202 218 299 324 90 98
276 312 384 440 57 69 107 127 110 130 37 33 730 901 855 1070 97 132 289 384
310 406 5 6 24 29 40 50 41 52 164 202 196 239 14 17 70 82 125 145 54 63 117
135 139 160 23 25 93 101 155 170 199 218 706 720 904 895 38 33 76 67 85 76
69 69 470 405 661 555 478 375 967 706 1475 999 261 151 756 398 1010 505 55
24 118 50 140 60 112 49 672 249 700 250 6 0 -154 -83 -355 -183z m1287 -6163
c-3 -3 -12 -4 -19 -1 -8 3 -5 6 6 6 11 1 17 -2 13 -5z m40 0 c-3 -3 -12 -4
-19 -1 -8 3 -5 6 6 6 11 1 17 -2 13 -5z m-604 -51 c-7 -2 -19 -2 -25 0 -7 3
-2 5 12 5 14 0 19 -2 13 -5z m-44 -7 c-3 -3 -20 -8 -39 -11 -19 -3 -64 -13
-100 -21 -36 -9 -76 -18 -90 -20 -60 -11 -239 -56 -352 -89 -67 -19 -127 -35
-133 -34 -29 1 345 111 425 124 19 3 82 16 140 28 107 23 157 31 149 23z m174
-3 c-7 -2 -21 -2 -30 0 -10 3 -4 5 12 5 17 0 24 -2 18 -5z m-60 -10 c-7 -2
-21 -2 -30 0 -10 3 -4 5 12 5 17 0 24 -2 18 -5z m-53 -7 c0 -2 -13 -6 -30 -8
-16 -3 -30 -1 -30 4 0 4 14 8 30 8 17 0 30 -2 30 -4z m-140 -27 c-41 -10 -91
-21 -110 -25 -19 -3 -38 -8 -41 -10 -3 -2 -21 -6 -40 -9 -19 -3 -94 -22 -168
-41 -74 -19 -135 -33 -137 -31 -3 3 34 15 171 55 29 8 28 8 160 38 66 14 134
29 150 33 70 16 83 8 15 -10z m720 -49 c0 -5 -12 -10 -27 -9 l-28 1 25 8 c14
4 26 8 28 9 1 1 2 -3 2 -9z m1188 -47 c-21 -2 -55 -2 -75 0 -21 2 -4 4 37 4
41 0 58 -2 38 -4z m310 -16 c6 0 10 -3 7 -6 -6 -6 -38 -4 -160 9 -71 8 -68 8
30 3 61 -3 116 -6 123 -6z m-1214 -5 c3 -5 -1 -9 -9 -9 -8 0 -12 4 -9 9 3 4 7
8 9 8 2 0 6 -4 9 -8z m1359 -12 c20 0 37 -4 37 -8 0 -4 -36 -4 -80 1 -44 6
-77 13 -75 17 3 5 22 4 42 -1 21 -5 55 -9 76 -9z m-2103 6 c0 -2 -7 -7 -16
-10 -8 -3 -12 -2 -9 4 6 10 25 14 25 6z m-80 -16 c0 -5 -7 -10 -16 -10 -9 0
-82 -16 -163 -36 -80 -20 -153 -37 -161 -39 -41 -10 -148 -40 -269 -76 -74
-21 -136 -37 -138 -35 -3 2 163 60 207 71 3 1 43 13 90 28 47 15 94 28 105 30
11 2 72 15 135 30 63 14 135 30 160 36 25 5 46 9 48 10 1 1 2 -3 2 -9z m37 4
c-3 -3 -12 -4 -19 -1 -8 3 -5 6 6 6 11 1 17 -2 13 -5z m2548 -55 c66 -12 187
-37 269 -55 82 -19 154 -34 160 -34 5 0 7 -3 3 -6 -3 -4 -37 1 -74 9 -151 35
-209 48 -233 52 -14 3 -72 13 -130 24 -144 27 -301 51 -329 51 -12 0 -20 4
-17 8 5 8 135 -10 351 -49z m-2889 42 c-3 -4 -34 -16 -68 -25 -35 -10 -111
-31 -170 -48 -60 -16 -114 -31 -120 -32 -32 -6 -298 -82 -338 -96 -14 -5 -65
-21 -115 -36 -466 -140 -1198 -506 -1738 -870 -239 -160 -339 -225 -333 -216
3 5 24 22 48 38 24 16 90 63 148 105 182 131 393 270 460 303 36 18 102 58
148 89 45 31 82 53 82 49 0 -4 4 -2 8 3 4 6 30 22 57 35 28 14 52 28 53 33 2
4 12 7 23 7 11 0 22 7 25 15 4 8 10 12 15 9 5 -3 9 0 9 6 0 7 7 10 15 7 8 -4
17 -1 21 5 4 7 3 8 -4 4 -7 -4 -12 -5 -12 -2 0 3 10 10 21 17 15 8 19 8 15 0
-11 -18 5 -13 21 7 10 11 12 12 8 2 -4 -8 1 -6 9 4 9 11 16 16 16 11 0 -5 6
-2 13 7 16 20 51 33 42 15 -4 -6 1 -3 9 7 9 11 16 16 16 11 0 -5 6 -2 13 7 16
20 51 33 42 15 -4 -6 0 -4 9 7 8 10 20 15 27 10 7 -4 10 -3 6 3 -8 13 89 56
105 47 6 -4 8 -3 5 3 -8 12 20 26 34 17 5 -3 9 -1 9 5 0 6 7 7 17 4 10 -4 14
-2 10 4 -8 13 38 34 58 27 9 -4 17 1 21 11 4 9 13 14 20 11 8 -3 14 -1 14 5 0
6 5 7 10 4 6 -3 10 0 10 7 0 9 3 9 10 -2 9 -14 14 -7 11 13 -1 5 8 5 20 2 16
-5 19 -4 14 6 -6 9 -3 11 9 6 16 -6 88 20 94 35 2 4 9 5 16 2 8 -3 20 2 29 10
8 8 17 13 20 10 4 -4 26 3 102 32 11 4 62 21 113 39 51 17 89 34 85 39 -4 4 0
4 10 0 9 -3 17 -2 17 4 0 5 6 10 13 9 31 -1 48 4 43 12 -4 5 4 7 16 3 14 -3
19 -1 14 6 -5 8 -2 10 9 6 8 -4 22 -1 30 6 8 7 15 10 15 7 0 -3 21 1 47 9 41
12 251 58 323 70 94 16 134 25 138 29 8 8 14 6 8 -4z m719 -1 c-3 -5 -12 -10
-18 -10 -7 0 -6 4 3 10 19 12 23 12 15 0z m51 -2 c3 -4 -1 -5 -10 -4 -8 1 -18
5 -22 8 -3 4 1 5 10 4 8 -1 18 -5 22 -8z m41 6 c-3 -3 -12 -4 -19 -1 -8 3 -5
6 6 6 11 1 17 -2 13 -5z m-134 -11 c-7 -2 -19 -2 -25 0 -7 3 -2 5 12 5 14 0
19 -2 13 -5z m-100 -10 c-7 -2 -21 -2 -30 0 -10 3 -4 5 12 5 17 0 24 -2 18 -5z
m2480 -110 c-7 -2 -19 -2 -25 0 -7 3 -2 5 12 5 14 0 19 -2 13 -5z m44 -9 c-3
-3 -12 -4 -19 -1 -8 3 -5 6 6 6 11 1 17 -2 13 -5z m-11188 -168 c138 -176 260
-292 419 -398 l54 -36 -44 -26 c-46 -27 -73 -32 -82 -17 -3 5 -28 16 -55 25
-28 9 -76 31 -108 50 -32 18 -68 37 -80 40 -13 4 -23 12 -23 17 0 5 -6 9 -12
9 -25 0 -175 138 -212 194 -36 55 -86 166 -86 192 0 6 21 35 47 64 l47 52 25
-30 c14 -16 64 -78 110 -136z m11461 154 c13 -9 13 -10 0 -10 -8 0 -22 5 -30
10 -13 9 -13 10 0 10 8 0 22 -5 30 -10z m-3845 -50 c-27 -12 -43 -12 -25 0 8
5 22 9 30 9 10 0 8 -3 -5 -9z m-38 -36 c-3 -3 -12 -4 -19 -1 -8 3 -5 6 6 6 11
1 17 -2 13 -5z m-80 -26 c-16 -6 -33 -6 -37 -2 -5 5 7 10 28 10 37 2 37 2 9
-8z m-48 -13 c-4 -4 -194 -73 -244 -89 -11 -3 5 6 35 20 30 15 60 29 65 30 6
2 37 12 70 23 62 20 82 24 74 16z m-329 -125 c-8 -5 -19 -10 -25 -10 -5 0 -3
5 5 10 8 5 20 10 25 10 6 0 3 -5 -5 -10z m-7386 -100 c112 -142 227 -234 412
-329 l73 -38 -42 -30 c-23 -16 -109 -69 -192 -118 -82 -48 -175 -105 -205
-125 -30 -21 -131 -82 -224 -135 -145 -84 -312 -185 -406 -248 -25 -16 -26
-16 -102 54 -42 38 -80 78 -83 89 -17 53 155 311 412 621 127 153 246 307 264
341 10 19 13 19 23 7 6 -8 38 -48 70 -89z m7345 86 c-10 -10 -133 -56 -137
-51 -3 2 4 8 14 11 10 4 39 15 64 25 43 17 68 23 59 15z m-179 -74 c-19 -9
-75 -35 -124 -59 -49 -23 -84 -37 -78 -31 16 16 204 106 222 107 8 0 -1 -8
-20 -17z m-960 -183 c-124 -76 -432 -259 -437 -259 -14 0 56 45 217 140 96 57
195 116 220 131 25 15 50 28 55 28 6 0 -19 -17 -55 -40z m549 -23 c-2 -1 -58
-32 -124 -66 -103 -55 -189 -102 -342 -191 -18 -10 -33 -15 -33 -11 0 4 51 36
113 72 169 98 422 227 386 196z m-999 -243 c0 -5 -18 -18 -40 -31 -51 -29 -52
-20 -2 12 43 29 42 28 42 19z m480 -43 c-35 -24 -54 -31 -30 -11 14 11 30 21
35 21 6 0 3 -5 -5 -10z m-570 -14 c0 -2 -12 -11 -27 -20 l-28 -17 24 20 c23
21 31 25 31 17z m-90 -61 c-19 -14 -36 -25 -39 -25 -10 0 53 49 63 50 6 0 -5
-11 -24 -25z m-6637 -277 l39 -19 -109 -55 c-119 -61 -271 -149 -348 -203
-123 -84 -187 -131 -285 -206 -58 -44 -114 -87 -125 -97 -11 -9 -61 -49 -111
-90 -51 -40 -138 -111 -195 -157 -101 -81 -98 -77 96 115 110 110 233 228 274
264 41 36 79 70 85 75 102 93 329 262 466 349 113 70 121 71 213 24z m-393 13
c0 -5 -64 -63 -142 -129 -79 -66 -152 -128 -163 -138 -11 -11 -38 -34 -60 -53
-118 -101 -361 -329 -538 -506 -86 -87 -126 -121 -103 -90 56 75 149 178 267
295 111 110 139 137 309 290 58 52 132 120 165 151 33 31 82 77 110 103 38 36
112 77 153 85 1 1 2 -3 2 -8z m625 -185 l26 -24 -78 -31 c-43 -18 -87 -36 -98
-41 -54 -25 -95 -38 -95 -32 0 11 184 140 217 151 1 1 14 -10 28 -23z m-429
-119 c-16 -12 -91 -67 -165 -123 -107 -79 -410 -320 -556 -442 -164 -137 -496
-385 -504 -376 -3 3 2 11 11 18 9 7 56 48 105 93 448 409 752 642 1073 822 64
36 77 39 36 8z m538 -22 c-6 -15 -25 -22 -189 -76 -55 -18 -136 -47 -180 -65
-44 -19 -71 -27 -61 -19 43 33 207 111 296 142 106 36 143 41 134 18z m-41
-184 c-3 -14 -17 -20 -52 -25 -26 -3 -66 -15 -89 -26 -23 -11 -45 -20 -50 -20
-31 0 -222 -88 -352 -163 -148 -84 -220 -134 -510 -350 -512 -382 -588 -431
-235 -153 88 70 167 132 175 139 46 38 267 201 335 249 204 142 415 252 620
324 137 49 166 53 158 25z m5192 -41 c-10 -11 -22 -20 -28 -20 -5 0 1 9 14 20
31 25 37 25 14 0z m-5205 -94 c0 -8 -26 -26 -57 -41 -32 -14 -67 -31 -78 -37
-11 -6 -54 -29 -95 -51 -68 -36 -236 -130 -285 -160 -26 -16 -478 -318 -745
-499 -326 -220 -655 -409 -827 -477 -29 -12 -75 -30 -103 -41 -27 -11 -50 -18
-50 -16 0 2 37 23 83 46 570 292 685 364 1182 737 421 315 690 468 973 552 1
1 2 -5 2 -13z m-49 -219 c-11 -31 -17 -36 -79 -52 -132 -35 -327 -119 -417
-178 -18 -12 -24 -14 -15 -4 34 36 424 249 490 267 33 9 34 7 21 -33z m-931
-38 c-94 -81 -790 -587 -790 -574 0 7 186 154 335 266 175 131 470 337 485
338 3 0 -11 -13 -30 -30z m5700 -23 c-31 -28 -170 -126 -169 -119 1 10 160
132 174 132 5 1 3 -5 -5 -13z m-4885 -142 c-11 -9 -80 -45 -154 -81 -83 -40
-151 -81 -180 -107 -38 -35 -178 -153 -310 -261 -13 -11 -32 -27 -41 -35 -79
-74 -310 -246 -420 -314 -204 -127 -378 -208 -582 -272 -106 -33 -289 -70
-271 -54 4 4 53 19 108 35 315 87 496 195 1010 602 285 225 548 384 790 479
71 27 76 28 50 8z m4700 6 c-3 -5 -16 -15 -28 -21 -19 -9 -19 -8 3 10 28 23
34 26 25 11z m-4750 -200 c-17 -34 -21 -36 -79 -44 l-40 -5 65 43 c35 24 65
42 67 41 2 -2 -4 -17 -13 -35z m4650 -166 c-72 -60 -282 -220 -430 -326 -613
-439 -1004 -698 -1042 -690 -8 2 -12 -1 -9 -6 7 -12 -142 -100 -417 -246 -60
-32 -111 -56 -113 -54 -2 3 29 21 69 42 39 20 99 52 132 71 33 19 115 65 182
102 67 37 119 72 116 78 -4 5 -3 7 2 3 4 -4 13 -2 19 6 6 7 110 75 231 151
121 76 265 170 320 210 55 39 159 111 230 160 162 111 202 138 344 239 180
128 221 158 306 224 80 62 117 84 60 36z m-5521 -52 c-231 -187 -496 -367
-649 -442 -109 -53 -285 -115 -356 -124 -36 -5 -24 2 71 43 138 59 259 121
444 230 76 44 140 81 142 81 2 0 83 52 181 115 172 110 212 134 167 97z m541
-154 c-132 -139 -295 -301 -335 -333 -25 -19 -66 -54 -91 -79 -80 -75 -197
-160 -364 -264 -73 -45 -247 -126 -348 -161 -147 -51 -274 -74 -442 -77 -179
-4 -294 12 -357 50 -24 14 -41 26 -38 27 3 0 84 2 180 3 471 8 606 32 850 152
171 84 372 230 719 522 127 108 257 211 266 211 5 1 -13 -23 -40 -51z m-455
-190 c-124 -116 -289 -244 -372 -289 -174 -95 -414 -181 -568 -204 -14 -2 -41
-6 -61 -10 -19 -3 -67 -8 -105 -10 -38 -2 -102 -6 -143 -9 -91 -7 -89 -1 4 14
39 6 81 13 95 15 14 3 72 12 130 20 265 40 406 91 679 250 54 31 257 173 321
224 41 33 77 60 80 60 3 0 -24 -27 -60 -61z m432 -30 c-17 -24 -38 -53 -48
-65 -11 -11 -33 -39 -50 -60 -152 -186 -403 -380 -654 -507 -262 -133 -475
-196 -717 -212 -79 -6 -92 -4 -123 15 l-35 21 65 1 c76 1 114 0 153 -4 119
-14 474 111 687 242 36 22 78 48 95 57 117 67 424 322 584 486 36 38 67 68 69
68 2 0 -10 -19 -26 -42z m-2027 -626 c-3 -3 -11 0 -18 7 -9 10 -8 11 6 5 10
-3 15 -9 12 -12z m5005 -277 c0 -3 -32 -21 -71 -40 -39 -20 -68 -31 -64 -25 4
6 32 24 63 40 59 29 72 34 72 25z m-335 -165 c-3 -5 -12 -10 -18 -10 -7 0 -6
4 3 10 19 12 23 12 15 0z m-36 -14 c-6 -6 -191 -87 -209 -91 -8 -3 -69 -25
-135 -50 -247 -95 -701 -242 -712 -231 -4 3 121 46 152 52 44 8 427 139 555
188 52 21 120 47 150 58 56 21 114 45 160 66 25 11 47 15 39 8z m-4064 -54
c-3 -3 -11 0 -18 7 -9 10 -8 11 6 5 10 -3 15 -9 12 -12z m85 -27 c14 -8 21
-14 15 -14 -5 0 -21 6 -35 14 -14 8 -20 14 -15 14 6 0 21 -6 35 -14z m71 -30
c19 -8 27 -14 19 -14 -14 0 -72 28 -59 29 4 0 22 -7 40 -15z m12039 -15 c0 -5
-8 -10 -17 -10 -15 0 -16 2 -3 10 19 12 20 12 20 0z m-11950 -16 c23 -9 39
-18 37 -20 -2 -3 -24 4 -48 15 -54 24 -45 27 11 5z m77 -30 c-3 -3 -12 -4 -19
-1 -8 3 -5 6 6 6 11 1 17 -2 13 -5z m73 -26 c10 -6 7 -7 -10 -2 -14 3 -32 11
-40 16 -10 6 -7 7 10 2 14 -3 32 -11 40 -16z m11290 -28 c-8 -5 -19 -10 -25
-10 -5 0 -3 5 5 10 8 5 20 10 25 10 6 0 3 -5 -5 -10z m-30 -50 c-180 -64 -306
-117 -480 -203 -172 -85 -175 -86 -130 -55 108 76 347 184 570 259 187 62 215
62 40 -1z m-25 33 c-11 -3 -33 -11 -50 -18 -16 -8 -75 -32 -130 -54 -190 -75
-427 -190 -562 -273 -18 -11 -33 -17 -33 -15 0 3 36 28 80 56 106 69 309 169
450 224 211 81 225 86 245 85 l20 0 -20 -5z m1910 -95 c6 -6 -6 -7 -35 -3 -25
3 -82 6 -127 8 -44 1 -77 5 -72 8 15 9 223 -2 234 -13z m-1670 -96 c-6 -5 -32
-17 -60 -27 -185 -67 -567 -246 -700 -329 -127 -79 -129 -71 -2 11 226 146
339 201 612 299 164 58 163 58 150 46z m391 1 c-12 -13 -72 -29 -87 -24 -7 2
9 10 36 17 28 6 52 12 54 13 2 0 1 -2 -3 -6z m41 1 c-3 -3 -12 -4 -19 -1 -8 3
-5 6 6 6 11 1 17 -2 13 -5z m-143 -32 c3 -5 -8 -6 -25 -4 -16 2 -29 6 -29 8 0
8 49 4 54 -4z m-61 -9 c3 -5 -14 -9 -37 -9 -30 -1 -36 1 -21 6 26 11 53 12 58
3z m-93 -20 c-57 -18 -70 -21 -70 -13 0 9 29 17 65 18 13 0 15 -1 5 -5z m-565
-36 c-11 -7 -122 -64 -247 -128 -314 -162 -540 -295 -649 -383 -14 -12 -43
-34 -65 -51 -105 -81 -427 -393 -559 -540 -14 -16 -43 -48 -64 -70 -20 -22
-81 -92 -136 -155 -54 -63 -101 -117 -105 -120 -3 -3 -35 -41 -70 -85 -84
-103 -311 -331 -373 -374 -34 -23 -13 1 73 85 66 65 174 184 239 264 65 80
133 159 151 175 36 33 111 131 109 141 0 4 6 11 15 16 9 5 13 14 10 20 -4 7
-2 8 4 4 8 -4 16 3 22 19 5 14 14 23 20 20 9 -6 14 8 11 28 -1 5 3 6 9 2 5 -3
10 0 10 8 0 8 8 21 18 28 16 13 16 13 2 -6 -14 -19 -14 -19 3 -6 9 7 17 19 17
26 0 12 33 47 41 42 2 -1 49 45 104 103 l100 105 -105 -100 c-129 -123 -126
-118 11 22 177 179 247 243 223 201 -4 -8 -3 -10 2 -5 5 5 10 13 10 18 1 5 2
14 3 19 0 6 6 10 12 10 5 0 7 -5 3 -12 -4 -7 -3 -8 5 -4 6 4 9 11 6 16 -3 4
34 41 83 81 48 40 78 63 68 51 -11 -12 -15 -22 -9 -22 13 0 45 35 38 42 -3 3
3 11 12 19 16 13 17 12 4 -3 -7 -10 -9 -18 -3 -18 15 0 33 26 24 35 -4 5 -2 6
3 2 6 -3 35 13 65 35 30 22 93 65 140 96 98 65 112 77 102 87 -4 5 -1 5 5 1
17 -9 55 12 47 26 -4 7 -3 8 4 4 12 -7 56 17 47 26 -3 2 1 5 8 5 6 0 35 14 62
30 50 30 220 100 345 144 36 12 74 28 84 36 11 7 22 10 25 7 3 -3 -3 -11 -14
-17z m382 -13 c-3 -3 -12 -4 -19 -1 -8 3 -5 6 6 6 11 1 17 -2 13 -5z m-10497
-114 c8 -5 11 -10 5 -10 -5 0 -17 5 -25 10 -8 5 -10 10 -5 10 6 0 17 -5 25
-10z m45 -20 c3 -5 2 -10 -4 -10 -5 0 -13 5 -16 10 -3 6 -2 10 4 10 5 0 13 -4
16 -10z m220 -93 c99 -41 226 -91 283 -112 56 -21 101 -40 99 -42 -5 -4 -200
66 -332 120 -199 82 -220 91 -240 105 -24 17 -33 21 190 -71z m3655 -6 c0 -6
-23 -11 -52 -12 -29 0 -60 -2 -68 -3 -8 -2 -47 -6 -86 -10 -39 -4 -136 -20
-215 -37 -175 -36 -176 -37 -199 -44 -10 -3 -27 -8 -37 -10 -24 -5 -193 -52
-218 -60 -17 -5 -17 -5 -4 4 60 39 417 127 649 160 148 21 230 25 230 12z
m128 4 c-9 -9 -118 -13 -118 -4 0 5 28 9 62 9 34 0 59 -2 56 -5z m42 -7 c0 -4
-4 -8 -9 -8 -6 0 -12 4 -15 8 -3 5 1 9 9 9 8 0 15 -4 15 -9z m235 -2 c11 -3
40 -8 65 -11 48 -7 275 -52 300 -60 8 -2 31 -8 50 -13 19 -5 52 -17 74 -26 46
-19 49 -20 40 -4 -5 8 -2 9 12 4 10 -4 51 -19 89 -33 79 -28 222 -95 275 -128
32 -20 96 -56 194 -109 109 -60 333 -265 463 -426 58 -73 237 -330 229 -330
-2 0 -46 55 -97 123 -241 320 -399 473 -635 619 -98 60 -297 163 -384 198 -30
12 -64 26 -75 31 -24 11 -181 62 -245 80 -52 15 -45 13 -90 22 -19 4 -46 10
-60 13 -67 14 -102 20 -176 30 -92 12 -97 12 -124 14 -21 2 -19 4 10 10 35 7
46 7 85 -4z m-132 -3 c-7 -2 -21 -2 -30 0 -10 3 -4 5 12 5 17 0 24 -2 18 -5z
m5467 -77 c0 -2 -8 -10 -17 -17 -16 -13 -17 -12 -4 4 13 16 21 21 21 13z m-11
-40 c-2 -2 -35 -25 -74 -51 -38 -26 -96 -67 -127 -91 -32 -24 -58 -40 -58 -35
0 12 108 98 143 114 15 6 25 17 23 24 -3 7 1 10 8 7 8 -3 29 4 47 15 31 19 49
27 38 17z m-298 -214 c-76 -60 -220 -184 -288 -249 -40 -38 -73 -66 -73 -62 0
24 252 249 360 321 39 26 39 20 1 -10z m-1012 -484 c-31 -39 -120 -147 -144
-174 -5 -6 -32 -37 -60 -70 -77 -90 -238 -255 -244 -249 -3 3 29 40 70 83 42
42 122 131 179 197 127 148 223 255 228 255 2 0 -11 -19 -29 -42z m530 25 c-8
-10 -35 -40 -61 -68 -55 -59 -58 -62 -213 -241 -164 -190 -202 -228 -109 -109
43 55 83 105 89 111 5 6 25 29 43 52 48 59 73 86 170 185 81 82 111 109 81 70z
m-2419 -283 c6 -11 8 -20 6 -20 -3 0 -10 9 -16 20 -6 11 -8 20 -6 20 3 0 10
-9 16 -20z m1429 -252 c-2 -2 -27 -23 -54 -48 l-50 -45 49 52 c28 29 52 50 55
48 2 -3 2 -6 0 -7z m531 8 c0 -2 -8 -10 -17 -17 -16 -13 -17 -12 -4 4 13 16
21 21 21 13z m-666 -128 c-57 -63 -129 -128 -141 -128 -7 0 -13 -4 -13 -9 0
-17 -185 -101 -254 -115 -70 -15 -232 -14 -247 1 -4 4 40 8 99 8 112 0 160 11
272 63 63 29 207 125 266 176 49 44 56 45 18 4z"/>
<path d="M11130 7950 c-9 -6 -10 -10 -3 -10 6 0 15 5 18 10 8 12 4 12 -15 0z"/>
<path d="M11663 2954 l-58 -56 63 53 c34 30 62 55 62 56 0 9 -15 -3 -67 -53z"/>
<path d="M11440 2755 c-7 -9 -11 -17 -9 -20 3 -2 10 5 17 15 14 24 10 26 -8 5z"/>
<path d="M13687 8294 c-1 -1 -73 -4 -159 -8 -87 -4 -175 -8 -195 -11 -36 -4
-86 -9 -213 -20 -83 -8 -139 -15 -205 -25 -33 -5 -78 -12 -100 -15 -51 -8
-225 -36 -245 -40 -57 -13 -219 -46 -240 -50 -103 -19 -433 -113 -635 -180
-88 -29 -361 -134 -440 -169 -33 -15 -82 -37 -110 -49 -63 -27 -470 -232 -510
-256 -16 -10 -75 -44 -130 -75 -140 -80 -143 -89 -5 -17 260 138 747 368 757
358 2 -2 -41 -23 -94 -47 -154 -67 -547 -270 -571 -294 -4 -5 67 29 158 75 91
46 167 84 170 84 3 1 34 15 70 32 317 150 805 328 1180 433 147 40 438 110
530 126 14 3 50 9 80 15 30 5 93 16 140 24 47 8 94 17 105 19 11 2 47 7 80 10
33 4 71 8 85 11 14 2 48 7 75 10 28 3 66 7 85 10 32 4 101 10 220 20 96 8 268
18 337 19 40 1 74 4 77 6 4 4 -292 8 -297 4z m-2342 -524 c-3 -5 -12 -10 -18
-10 -7 0 -6 4 3 10 19 12 23 12 15 0z"/>
<path d="M14028 8293 c7 -3 16 -2 19 1 4 3 -2 6 -13 5 -11 0 -14 -3 -6 -6z"/>
<path d="M15865 8026 c196 -53 367 -105 380 -116 9 -8 201 -72 207 -70 2 0 48
-18 103 -41 104 -42 205 -74 189 -59 -17 16 -279 118 -459 178 -180 61 -450
134 -535 146 -25 3 27 -14 115 -38z"/>
<path d="M10550 7375 c-14 -8 -20 -14 -14 -15 5 0 19 7 30 15 24 18 16 19 -16
0z"/>
<path d="M10360 7310 c-9 -6 -10 -10 -3 -10 6 0 15 5 18 10 8 12 4 12 -15 0z"/>
<path d="M9254 6578 l-19 -23 23 19 c21 18 27 26 19 26 -2 0 -12 -10 -23 -22z"/>
<path d="M9043 6420 c-73 -54 -139 -104 -145 -110 -7 -6 -40 -32 -74 -58 -114
-88 -194 -154 -194 -158 0 -3 17 8 38 23 90 67 252 190 302 230 30 24 60 47
65 51 104 81 153 122 143 122 -2 0 -63 -45 -135 -100z"/>
<path d="M8304 6328 l-19 -23 23 19 c21 18 27 26 19 26 -2 0 -12 -10 -23 -22z"/>
<path d="M8149 6213 c-13 -16 -12 -17 4 -4 9 7 17 15 17 17 0 8 -8 3 -21 -13z"/>
<path d="M8545 6035 c-16 -13 -25 -24 -19 -25 6 0 21 11 34 25 30 32 24 32
-15 0z"/>
<path d="M14037 3604 c-1 -1 -42 -5 -90 -9 -48 -3 -97 -8 -109 -10 -11 -3 -46
-7 -77 -10 -76 -9 -113 -15 -266 -46 -55 -12 -108 -22 -117 -24 -60 -12 -235
-63 -363 -106 -409 -137 -760 -323 -1070 -569 -112 -88 -150 -123 -335 -311
-187 -190 -198 -202 -275 -294 -28 -33 -55 -66 -62 -73 -27 -28 -83 -99 -83
-105 0 -3 24 20 53 51 176 190 493 501 621 607 48 40 56 44 22 11 -199 -191
-295 -287 -376 -377 -197 -215 -188 -216 25 -3 231 231 368 353 526 471 355
264 760 470 1189 604 87 27 298 85 344 95 11 2 65 13 120 24 134 28 355 59
474 66 53 4 99 8 102 11 3 2 -53 3 -123 2 -70 -1 -128 -3 -130 -5z m-2057
-807 c0 -2 -10 -12 -22 -23 l-23 -19 19 23 c18 21 26 27 26 19z"/>
<path d="M15945 3276 c147 -72 325 -172 340 -191 9 -11 71 -47 220 -130 142
-78 173 -93 205 -100 24 -5 -11 20 -110 77 -126 73 -272 159 -320 188 -139 85
-369 198 -435 214 -16 3 29 -22 100 -58z"/>
<path d="M16790 2866 c0 -2 7 -7 16 -10 8 -3 12 -2 9 4 -6 10 -25 14 -25 6z"/>
<path d="M11279 2082 c-6 -14 -192 -215 -294 -317 -333 -332 -708 -573 -990
-636 -27 -6 -59 -13 -70 -15 -11 -2 -60 -7 -110 -10 -49 -4 -92 -8 -95 -11 -2
-2 38 -3 89 -2 355 7 688 166 1030 491 110 104 228 232 331 358 25 30 47 57
50 60 43 44 72 81 68 85 -3 4 -8 2 -9 -3z"/>
<path d="M11159 2013 c-13 -16 -12 -17 4 -4 16 13 21 21 13 21 -2 0 -10 -8
-17 -17z"/>
<path d="M11125 1980 c-3 -5 -1 -10 4 -10 6 0 11 5 11 10 0 6 -2 10 -4 10 -3
0 -8 -4 -11 -10z"/>
<path d="M9265 1950 c10 -11 20 -20 23 -20 3 0 -3 9 -13 20 -10 11 -20 20 -23
20 -3 0 3 -9 13 -20z"/>
<path d="M10960 1811 c-164 -164 -192 -191 -304 -282 -150 -121 -281 -209
-401 -269 -66 -33 -118 -60 -115 -60 14 -1 125 46 201 85 184 93 374 240 569
442 119 122 218 234 203 231 -4 -1 -73 -67 -153 -147z"/>
<path d="M9315 1890 c10 -11 20 -20 23 -20 3 0 -3 9 -13 20 -10 11 -20 20 -23
20 -3 0 3 -9 13 -20z"/>
<path d="M9360 1836 c0 -2 8 -10 18 -17 15 -13 16 -12 3 4 -13 16 -21 21 -21
13z"/>
<path d="M9133 1353 c23 -37 268 -169 349 -188 154 -35 310 -45 418 -26 32 6
14 8 -65 6 -136 -3 -227 8 -342 40 -94 28 -230 88 -297 133 -62 42 -70 46 -63
35z"/>
<path d="M9558 1113 c7 -3 16 -2 19 1 4 3 -2 6 -13 5 -11 0 -14 -3 -6 -6z"/>
</g>
</svg>
